<svg xmlns="http://www.w3.org/2000/svg" width="44" height="27.234" viewBox="0 0 44 27.234"><path d="M21.336 2.289l.018-.026-.018.026c-.311-.213-.76-.311-1.2-.311-.997 0-1.709.493-2.178 1.186-.467.694-.685 1.59-.685 2.386 0 .576.087 1.113.437 1.598.175.238.593.805 1.946.809.941-.002 1.387-.245 1.627-.389l.041-.054c.047-.205.206-1.143.27-1.376l-.049-.038c-.475.377-.992.653-1.581.653-.396 0-.697-.096-.898-.274-.204-.181-.301-.447-.301-.774 0-.122.01-.232.02-.353l.002-.029h.028c.92-.023 1.389-.036 2.161-.036.252 0 .536 0 .88.004l.059-.041c.077-.358.161-.767.161-1.27-.001-.45-.05-1.242-.74-1.691zm-.608 1.956l-.006.025-.902.012-.893.012.008-.03.004-.012c.018-.064.038-.132.06-.202.063-.196.15-.41.305-.606.027-.035.056-.068.086-.101.275-.303.538-.35.708-.35.24 0 .415.095.526.238a.837.837 0 0 1 .153.391c.006.04.008.082.008.124.002.169-.029.335-.057.499zm-3.505-1.016l-.062.059-.888-.022-.412 1.937c-.058.241-.183.849-.183 1.045-.001.182.066.307.164.381.096.074.215.1.32.1.247 0 .335-.069.498-.132l.029.027-.217 1.116-.075.074c-.303.064-.53.117-.851.117-.826-.006-1.422-.283-1.426-1.246 0-.451.182-1.27.318-1.883l.328-1.538-.699.023-.042-.059.204-1.085.064-.036h.71l.282-1.426.056-.062c.709-.183.914-.269 1.562-.482l.032.038-.214.921-.22 1.034.91-.026.024.047-.212 1.078zM28.182 1.4l-.049.054-2.345-.007-.38 1.957 2.051-.062.029.048c-.169.566-.208.724-.321 1.213l-.052.051-1.951-.005-.257 1.358-.324 1.764-.043.04-1.681.043-.021-.043.292-1.501.444-2.12c.337-1.646.434-2.172.752-3.966l.051-.05h2.455l1.56-.04.029.04-.239 1.226zm3.313.953c-.328-.229-.848-.349-1.561-.349-.354 0-.709.034-1.067.102a7.162 7.162 0 0 0-.686.162l-.045.045-.232 1.186.075.046c.149-.068.366-.152.654-.255.295-.103.565-.154.812-.154.358 0 .629.048.815.148a.66.66 0 0 1 .327.578.728.728 0 0 1-.014.163c-.008.047-.016.08-.016.1l-.004.026s-.116.007-.239.018c-.081.007-.184.019-.303.032-.197.022-.422.051-.618.083-.473.078-1.799.284-2.195 1.172-.417.729-.346 1.693.063 2.166.145.164.364.32.662.381v.002c.013.004.059.01.069.012 1.146.178 1.969-.822 1.969-.822l-.121.616.049.043 1.291-.043.052-.046.759-3.809c.016-.082.028-.177.038-.285.007-.109.014-.197.014-.263a1.233 1.233 0 0 0-.548-1.055zm-1.328 3.809s-.307.482-.75.657c-.446.171-.766.034-.894-.137-.103-.135-.312-.561.089-1.038.406-.483 1.75-.513 1.75-.513l-.195 1.031zm6.256-4.236l-.313 1.639-.067.066a1.956 1.956 0 0 0-.341-.028c-.425 0-1.029.135-1.503.763l-.005.006-.651 3.4-.049.04-1.411.042-.039-.036 1.113-5.709.061-.06 1.4-.136.057.061-.161.826.067-.062a4.6 4.6 0 0 1 .843-.615 1.725 1.725 0 0 1 .952-.245l.047.048zM44 3.362c0 .345-.077.703-.153 1.053l-.655 3.356-.053.04-1.479.052-.038-.052s.76-3.709.76-3.892c0-.169-.089-.62-.562-.62-.369 0-.754.377-.754.377l-.798 4.096-.051.04-.638.023-.569.02-.284.01-.018-.025-.018-.026s.116-.564.257-1.264h-.003c.22-1.093.504-2.517.504-2.629 0-.169-.088-.62-.562-.62-.369 0-.754.377-.754.377l-.801 4.096-.049.04-.229.008-1.263.042-.031-.05 1.109-5.703.058-.056 1.476-.14.061.061-.156.802s.713-.78 1.622-.799c.849-.017 1.025.799 1.025.799s.845-.819 1.745-.799c.456.001 1.299.204 1.301 1.383zM13.069 2.353c-.327-.229-.848-.349-1.562-.349-.352 0-.708.034-1.066.102a7.162 7.162 0 0 0-.686.162l-.046.044-.232 1.187.075.046a9.36 9.36 0 0 1 .654-.255c.296-.103.566-.154.812-.154.357 0 .628.048.816.148.19.104.327.33.327.578a.869.869 0 0 1-.014.163 2.94 2.94 0 0 0-.018.1l-.004.026s-.115.007-.237.018c-.083.007-.186.019-.305.032-.196.022-.422.051-.617.083-.472.078-1.8.284-2.196 1.172-.416.73-.345 1.693.064 2.166.145.164.365.32.662.381v.002c.014.004.061.01.069.012 1.148.178 1.969-.822 1.969-.822l-.123.617.05.043 1.29-.043.052-.046.759-3.809a3.24 3.24 0 0 0 .053-.548 1.232 1.232 0 0 0-.546-1.056zm-1.328 3.809s-.306.482-.752.657c-.445.171-.765.034-.892-.137-.102-.135-.312-.561.09-1.038.405-.483 1.75-.513 1.75-.513l-.196 1.031zM8.634 3.229l-.062.059-.887-.021-.411 1.937c-.058.241-.183.849-.183 1.045 0 .182.066.307.164.381.096.074.214.1.321.1.246 0 .334-.069.498-.132l.027.027-.216 1.115-.077.074c-.303.064-.529.117-.85.117-.826-.005-1.423-.283-1.425-1.245 0-.451.182-1.27.316-1.883l.329-1.538-.699.023-.041-.059.202-1.085.066-.036h.708L6.697.682 6.752.62c.709-.183.915-.269 1.562-.482l.034.038-.216.921-.219 1.034.909-.026.024.047-.212 1.077zM5.298.596l-.27 1.39-.059.02a1.287 1.287 0 0 0-.323-.327 1.857 1.857 0 0 0-1.127-.4c-.314 0-.576.098-.759.262a.866.866 0 0 0-.285.656c0 .489.336.727.933 1.086l.231.133c.501.327 1.277.829 1.277 1.97-.001 1.297-.833 2.597-2.826 2.601-.489 0-.966-.088-1.427-.262a2.334 2.334 0 0 1-.647-.359L0 7.277.264 5.92l.059-.021c.119.156.271.283.496.433.48.32.94.354 1.136.354.705 0 1.256-.402 1.258-1.026-.003-.559-.443-.839-.904-1.111l-.318-.196C1.489 4.025.791 3.578.79 2.459c0-.432.124-1.048.506-1.554C1.797.239 2.588 0 3.384 0 4.409 0 4.996.362 5.27.539l.028.057zm13.637 16.342c.776.478 1.868.784 3.096.784 1.227 0 2.33-.307 3.116-.784.792-.479 1.258-1.126 1.26-1.809-.002-.685-.465-1.325-1.254-1.799-.782-.475-1.883-.773-3.114-.776-1.226.003-2.319.302-3.099.776-.781.474-1.241 1.113-1.242 1.797.001.684.459 1.331 1.237 1.811zm.196 3.696c-.786-.475-1.884-.774-3.113-.774-1.228 0-2.321.3-3.101.771-.781.476-1.239 1.112-1.242 1.796.003.687.458 1.329 1.237 1.812.777.476 1.867.781 3.095.784 1.228-.003 2.331-.308 3.117-.787.791-.48 1.256-1.123 1.259-1.808-.001-.68-.465-1.319-1.252-1.794zm12.015 0c-.785-.475-1.885-.774-3.114-.774-1.228 0-2.321.3-3.099.771-.781.476-1.24 1.112-1.24 1.798 0 .685.455 1.327 1.236 1.811.775.476 1.867.781 3.095.784 1.228-.003 2.33-.308 3.118-.787.789-.48 1.256-1.123 1.256-1.808 0-.681-.463-1.32-1.252-1.795zm-3.126-2.565c-.557 0-1.092.051-1.602.147 1.113-.794 1.8-1.889 1.8-3.096 0-2.428-2.758-4.359-6.18-4.359-3.422 0-6.151 1.932-6.151 4.359 0 1.21.672 2.304 1.775 3.099a8.618 8.618 0 0 0-1.626-.15c-3.422 0-6.15 1.93-6.15 4.358 0 2.424 2.713 4.391 6.136 4.391 2.914 0 5.357-1.422 6.022-3.345.647 1.923 3.048 3.345 5.962 3.345 3.423 0 6.194-1.967 6.194-4.391-.001-2.428-2.76-4.358-6.18-4.358zM17.003 15.12c.003-1.093.833-1.832 1.321-2.175.973-.694 2.293-1.066 3.714-1.066 1.426 0 2.75.376 3.733 1.066.489.345 1.328 1.085 1.335 2.175-.017 1.822-2.358 3.274-5.083 3.277-1.415 0-2.73-.379-3.699-1.077-.845-.602-1.321-1.384-1.321-2.2zm-.982 10.581c-1.417 0-2.731-.378-3.702-1.078-.84-.602-1.319-1.384-1.319-2.196.005-1.093.834-1.835 1.32-2.177.974-.688 2.293-1.064 3.715-1.066 1.426.002 2.75.379 3.732 1.067.491.346 1.331 1.084 1.336 2.176-.015 1.821-2.357 3.272-5.082 3.274zm6.023-4.319c-.267-.775-.825-1.463-1.585-2.011a8.512 8.512 0 0 0 1.56.145c.555 0 1.091-.053 1.604-.148-.758.545-1.316 1.235-1.579 2.014zm5.961 4.319c-1.416 0-2.729-.378-3.699-1.078-.845-.603-1.323-1.384-1.323-2.196.003-1.093.837-1.832 1.323-2.177.972-.688 2.293-1.064 3.715-1.066 1.427.002 2.749.379 3.733 1.067.49.346 1.328 1.087 1.331 2.176-.014 1.821-2.356 3.272-5.08 3.274zm9.532.003c0 .869-.623 1.53-1.452 1.53-.82 0-1.446-.661-1.446-1.53 0-.886.614-1.534 1.457-1.534.818 0 1.441.666 1.441 1.534zm-2.713-.004c0 .742.568 1.347 1.261 1.347.697 0 1.262-.604 1.262-1.349 0-.36-.135-.718-.361-.959a1.247 1.247 0 0 0-.881-.382c-.735 0-1.281.574-1.281 1.343zm1.192-.864c.183 0 .271.005.37.043a.443.443 0 0 1 .305.432.452.452 0 0 1-.341.436l.352.826h-.239l-.328-.782-.018-.003h-.314l-.027.003v.782h-.222v-1.737h.462zm-.012.774c.214 0 .298-.017.362-.066a.28.28 0 0 0 .109-.229c0-.125-.06-.219-.168-.255-.06-.028-.156-.037-.346-.037h-.188v.587h.231z" fill="#FFF"/></svg>